<svg id="Calque_1" data-name="Calque 1" xmlns="http://www.w3.org/2000/svg" viewBox="0 0 530.18 288">
  <defs>
    <style>
      .cls-1 {
        fill: #4f4f4f;
      }

      .cls-2 {
        fill: #ffb236;
      }

      .cls-3 {
        fill: #26b3fb;
      }
    </style>
  </defs>
  <title>Alquelira Logo Horizontal</title>
  <g>
    <path class="cls-1" d="M183.91,142.64l-4.6-12.3a47.76,47.76,0,0,0-18.75,11.37c-.42.41-.88.92-1.4,1.52s-1,1.18-1.43,1.74-.81,1.05-1.12,1.49a2.17,2.17,0,0,0-.46.84,2.64,2.64,0,0,0,.93,1.8v.37a33.66,33.66,0,0,0-5-.37,40.55,40.55,0,0,0-5.53.37l.31-.37a10.48,10.48,0,0,0,4-2.36,11.76,11.76,0,0,0,2.86-4.23l15-36.33a3.21,3.21,0,0,0,.19-1.06,5.84,5.84,0,0,0-1.34-3.69,14,14,0,0,0-3.38-3.26l-.12-.44c1,.08,2.25.16,3.66.22s2.67.09,3.79.09h1.68l2.85,7.27,8.14,20.37a69.32,69.32,0,0,1,8.29-.12,73.75,73.75,0,0,1,8.23.81l.25,1.24a63.37,63.37,0,0,0-8.08.12,61,61,0,0,0-7.45,1.06l5.59,14a13,13,0,0,0,2.24,3.82,8.56,8.56,0,0,0,3.35,2.39v.44a43.28,43.28,0,0,0-6.83-.56,48.9,48.9,0,0,0-7.33.56v-.37a1.6,1.6,0,0,1,.31-.9c.21-.31.44-.63.68-1a9.51,9.51,0,0,0,.69-1,2.4,2.4,0,0,0,.31-1.12,5.27,5.27,0,0,0-.16-1.24A7.73,7.73,0,0,0,183.91,142.64ZM171,108.54l-11,27.08a28.82,28.82,0,0,1,8.26-5.81,44.07,44.07,0,0,1,9.69-3.2l-6.77-18.07Z"/>
    <path class="cls-1" d="M208.94,149.16c-.83,0-1.78,0-2.86.12s-2,.15-2.85.19l-.07-.5a5.65,5.65,0,0,0,2.33-2.2,6.85,6.85,0,0,0,1.28-3.08c0-2.19.06-4.15.06-5.87V132q0-3.28-.13-6.77t-.25-6.77a7.82,7.82,0,0,0-.58-2.54,5.19,5.19,0,0,0-2.33-2.36v-.31l2.6.15c.92.06,1.83.1,2.74.1s1.74,0,2.61-.1,1.76-.11,2.67-.15v.31a3.33,3.33,0,0,0-2,2.17,13.67,13.67,0,0,0-.62,2.92c-.13,1.16-.2,2.36-.22,3.6s0,2.51,0,3.79v5.84c0,2.2,0,4.16.09,5.9s.16,3.71.28,5.9a3.32,3.32,0,0,0,.72,2,4.23,4.23,0,0,0,1.64,1.24,8.63,8.63,0,0,0,2.24.62,16.33,16.33,0,0,0,2.54.19,20.07,20.07,0,0,0,4-.47,10.57,10.57,0,0,0,3.79-1.52,7.56,7.56,0,0,0,1.49-1.37,17.22,17.22,0,0,0,1.06-1.39c.29-.44.55-.8.77-1.09a.93.93,0,0,1,.66-.44c.12,0,.2.08.24.22a1.52,1.52,0,0,1,.07.35,3,3,0,0,1-.28,1.08c-.19.44-.41.9-.66,1.4l-.74,1.52a8.16,8.16,0,0,0-.56,1.46,4.52,4.52,0,0,1-.71,1.18,1.66,1.66,0,0,1-1.34.56l-3.23.22c-1.12.06-2.19.09-3.23.09-1.24,0-2.33,0-3.26-.06s-1.81-.08-2.64-.1-1.66-.05-2.48-.09S210,149.16,208.94,149.16Z"/>
    <path class="cls-1" d="M254.41,113.32a25.58,25.58,0,0,1,9,1.49,20,20,0,0,1,6.68,4,17,17,0,0,1,4.13,5.84,17.36,17.36,0,0,1,1.43,6.92,16.76,16.76,0,0,1-1,5.93,16,16,0,0,1-2.88,4.94,18.93,18.93,0,0,1-4.45,3.76,22.53,22.53,0,0,1-5.62,2.45c2.82.75,5.59,1.61,8.33,2.58s5.48,1.88,8.26,2.73,5.6,1.57,8.48,2.15a44.88,44.88,0,0,0,8.91.86,18,18,0,0,0,4.35-.52,13,13,0,0,0,4-1.83,1.32,1.32,0,0,1,.69-.31c.08,0,.12,0,.12.06a.52.52,0,0,1-.09.21,1.57,1.57,0,0,1-.47.41,24,24,0,0,1-6.83,3.63,23.26,23.26,0,0,1-7.64,1.34A36.13,36.13,0,0,1,277.88,158a114.23,114.23,0,0,1-10.62-4.29q-3.11-1.49-6.3-2.73a22.5,22.5,0,0,0-7.17-1.42,30.16,30.16,0,0,1-8.11-1.46,21.54,21.54,0,0,1-6.68-3.55,16.78,16.78,0,0,1-4.5-5.43,15.21,15.21,0,0,1-1.65-7.14,15.5,15.5,0,0,1,1.74-7.18,20.22,20.22,0,0,1,4.69-6,22.65,22.65,0,0,1,6.87-4.07A23,23,0,0,1,254.41,113.32Zm-16.34,17.52a17,17,0,0,0,1.25,6.58,16.11,16.11,0,0,0,3.45,5.28,15.89,15.89,0,0,0,5.29,3.51,17.45,17.45,0,0,0,6.75,1.27q7.15,0,11.45-4.13t4.29-11.21a18.68,18.68,0,0,0-1.27-7.14,14.92,14.92,0,0,0-3.49-5.22,14.76,14.76,0,0,0-5.16-3.2,18.28,18.28,0,0,0-6.32-1.08,19,19,0,0,0-6.75,1.14,15,15,0,0,0-5.1,3.17,14.06,14.06,0,0,0-3.24,4.85A16.15,16.15,0,0,0,238.07,130.84Z"/>
    <path class="cls-1" d="M295.53,150a45.29,45.29,0,0,1-4.82-.28,13,13,0,0,1-4.63-1.4,9.5,9.5,0,0,1-3.51-3.29,11.66,11.66,0,0,1-1.52-5.9q-.06-3-.09-4.41c0-.91,0-1.7,0-2.36,0-1.58,0-3.23.06-5s.06-3.44.06-5.1V120.4q0-.93-.06-1.8a7.84,7.84,0,0,0-.59-2.55,5.23,5.23,0,0,0-2.33-2.36v-.31c.83,0,1.71.1,2.64.16s1.83.09,2.7.09,1.75,0,2.64-.09,1.77-.12,2.64-.16v.31a3.55,3.55,0,0,0-2.05,2.21,13.06,13.06,0,0,0-.62,2.89c-.12,1.16-.19,2.36-.22,3.6s0,2.51,0,3.79V132c0,.7,0,1.48,0,2.33s.08,2.18.16,4a11.89,11.89,0,0,0,1,5,7.57,7.57,0,0,0,2.33,2.86,7.32,7.32,0,0,0,3.17,1.27,22.42,22.42,0,0,0,3.57.28,29.25,29.25,0,0,0,4.75-.34,7.53,7.53,0,0,0,3.51-1.46,7.3,7.3,0,0,0,2.24-3.17,16.92,16.92,0,0,0,.93-5.52c0-1.29.06-2.3.06-3.05v-2.11c0-1.24,0-2.51,0-3.82s0-2.6,0-3.88c0-1,0-2,0-3s-.05-1.94-.09-2.89a6.7,6.7,0,0,0-.62-2.86,5.69,5.69,0,0,0-2.67-2v-.31l1.92.13c.63,0,1.27.06,1.93.06q1.25,0,2.58-.06c.89,0,1.79-.11,2.7-.19v.31a4.15,4.15,0,0,0-2.11,1.74,8.49,8.49,0,0,0-.69,3.35c-.08,2.08-.12,4.3-.12,6.68V132q0,1,0,1.89c0,.6,0,1.23,0,1.9a21.93,21.93,0,0,1-1.12,7.82,9.1,9.1,0,0,1-3.08,4.26,10.07,10.07,0,0,1-4.69,1.74A49.07,49.07,0,0,1,295.53,150Z"/>
    <path class="cls-1" d="M321.8,149.1c-.91,0-1.93,0-3.05.12s-2.09.17-2.92.25v-.68a4.53,4.53,0,0,0,1.28-.84,8.68,8.68,0,0,0,1.18-1.31,8.57,8.57,0,0,0,.9-1.52,3.54,3.54,0,0,0,.37-1.49c0-2.15.06-4.09.06-5.81V132q0-3.22-.09-6.77c-.06-2.36-.17-4.61-.34-6.77a4.77,4.77,0,0,0-.93-2.54,6.56,6.56,0,0,0-2.92-2.11l-.06-.5c.41,0,1,.07,1.67.1l2.18.13,2.17.14c.71,0,1.26.06,1.68.06s1.22,0,2.3-.06l3.35-.11q1.74-.1,3.48-.18c1.16,0,2.23-.08,3.23-.08l1.58,0q.84,0,1.56.12a6.57,6.57,0,0,1,1.21.28c.33.13.49.29.49.5a8.36,8.36,0,0,0,.22,2.17,7,7,0,0,1,.22,1.87c0,.25-.09.37-.25.37a.54.54,0,0,1-.53-.4,3.59,3.59,0,0,0-.47-.84,6.27,6.27,0,0,0-2.48-1.49,17.73,17.73,0,0,0-6.09-.75,24.56,24.56,0,0,0-2.54.13c-.87.08-2.07.16-3.6.25a4.36,4.36,0,0,0-.28,1.46c0,.51-.08,1-.16,1.58-.12,1.78-.2,3.63-.22,5.56s0,3.8,0,5.62q1.74,0,3.36.06c1.07,0,2.15.06,3.23.06a9.51,9.51,0,0,0,1.08-.06,9.69,9.69,0,0,1,1.09-.06,12.8,12.8,0,0,0,2.92-.48,5.53,5.53,0,0,0,2.73-2h.31a16.94,16.94,0,0,1-.18,1.76,11.09,11.09,0,0,0-.13,1.92v1.64c0,.34,0,.9.06,1.7h-.37a4,4,0,0,0-2.55-1.83,18,18,0,0,0-3.29-.59c-1.28-.08-2.63-.12-4-.12H324v.12q0,3.22.16,5.9t.28,5.9a2.51,2.51,0,0,0,1,2,7.5,7.5,0,0,0,2.24,1.15,12.26,12.26,0,0,0,2.82.56c1,.08,1.94.12,2.77.12a29.71,29.71,0,0,0,3.63-.22,7.07,7.07,0,0,0,3.32-1.27,13.28,13.28,0,0,0,2.86-2.58c.7-.89,1.22-1.33,1.55-1.33a.38.38,0,0,1,.44.43,2.08,2.08,0,0,1-.34,1c-.23.37-.49.77-.78,1.21L343,146a4.87,4.87,0,0,0-.65,1.4,2.74,2.74,0,0,1-.59,1.18c-.31.37-1.11.56-2.4.56H328.75c-.82,0-1.59,0-2.29,0l-2.11,0Z"/>
    <path class="cls-1" d="M352.79,149.16c-.83,0-1.78,0-2.86.12s-2,.15-2.85.19L347,149a5.65,5.65,0,0,0,2.33-2.2,6.85,6.85,0,0,0,1.28-3.08c0-2.19.06-4.15.06-5.87V132q0-3.28-.13-6.77t-.24-6.77a7.84,7.84,0,0,0-.59-2.54,5.19,5.19,0,0,0-2.33-2.36v-.31l2.61.15c.91.06,1.82.1,2.73.1s1.74,0,2.61-.1,1.76-.11,2.67-.15v.31a3.33,3.33,0,0,0-2.05,2.17,13.67,13.67,0,0,0-.62,2.92c-.13,1.16-.2,2.36-.22,3.6s0,2.51,0,3.79v5.84c0,2.2,0,4.16.09,5.9s.16,3.71.28,5.9a3.32,3.32,0,0,0,.72,2,4.23,4.23,0,0,0,1.64,1.24,8.63,8.63,0,0,0,2.24.62,16.33,16.33,0,0,0,2.54.19,20.07,20.07,0,0,0,4-.47,10.5,10.5,0,0,0,3.79-1.52,7.56,7.56,0,0,0,1.49-1.37,17.22,17.22,0,0,0,1.06-1.39c.29-.44.55-.8.77-1.09a.93.93,0,0,1,.66-.44c.12,0,.2.08.25.22a1.41,1.41,0,0,1,.06.35,3,3,0,0,1-.28,1.08c-.19.44-.41.9-.66,1.4L373,146a8.16,8.16,0,0,0-.56,1.46,4.26,4.26,0,0,1-.71,1.18,1.66,1.66,0,0,1-1.34.56l-3.23.22c-1.12.06-2.19.09-3.23.09-1.24,0-2.33,0-3.26-.06s-1.81-.08-2.64-.1-1.65-.05-2.48-.09S353.83,149.16,352.79,149.16Z"/>
    <path class="cls-1" d="M382.17,149.22q-1.31,0-2.64.06c-.89.05-1.73.11-2.52.19v-.37a5.3,5.3,0,0,0,2-1.49,3.81,3.81,0,0,0,.9-2.36c0-2.2.07-4.39.07-6.59v-6.58c0-2.15,0-4.41-.1-6.77s-.15-4.62-.28-6.77A7.44,7.44,0,0,0,379,116a5.48,5.48,0,0,0-2.33-2.39v-.25c.83.08,1.71.15,2.64.19s1.84.06,2.71.06,1.75,0,2.64-.09,1.77-.12,2.64-.16v.25a3.54,3.54,0,0,0-2.05,2.2,13.23,13.23,0,0,0-.63,2.89c-.12,1.16-.19,2.37-.21,3.64s0,2.53,0,3.82V132c0,2.16,0,4.33.12,6.53s.16,4.36.25,6.52a5.36,5.36,0,0,0,.81,2.45,4.19,4.19,0,0,0,2.17,1.65v.37c-.95-.08-1.89-.14-2.83-.19S383.08,149.22,382.17,149.22Z"/>
    <path class="cls-1" d="M395.46,113.88c1.66,0,3.25-.07,4.78-.22s3.05-.21,4.54-.21a20.38,20.38,0,0,1,3.79.43,15,15,0,0,1,3.85,1.24,8.48,8.48,0,0,1,3.69,3.64,9.72,9.72,0,0,1,1.15,4.44,9.15,9.15,0,0,1-1.33,4.78,10.61,10.61,0,0,1-3.51,3.6c-.38.17-.75.34-1.12.53a4.4,4.4,0,0,1-1.24.4c1.12,1.54,2.35,3.26,3.69,5.19a59.58,59.58,0,0,0,4.29,5.43,27.45,27.45,0,0,0,4.69,4.26,8.22,8.22,0,0,0,6.09,1.64A11,11,0,0,1,430,149c.2,0,.31.09.31.25s-.18.42-.53.62a5.78,5.78,0,0,1-1.27.53,11.28,11.28,0,0,1-1.53.34,8.91,8.91,0,0,1-1.27.13,12.82,12.82,0,0,1-7-1.84,25,25,0,0,1-5.28-4.53,68.1,68.1,0,0,1-4.53-5.74,37.37,37.37,0,0,0-4.75-5.53h-2.61a10.13,10.13,0,0,0-1.71,0l-2,.15c0,2,0,3.9.06,5.84s.15,3.89.31,5.84a4.79,4.79,0,0,0,.81,2.64,5.45,5.45,0,0,0,2.17,1.46v.37q-1.43-.06-2.82-.15c-.93-.07-1.87-.1-2.83-.1s-1.79,0-2.88.1l-2.89.15v-.43a9.21,9.21,0,0,0,2.32-1.46,3.4,3.4,0,0,0,1.28-2.33q.06-3.3.06-6.58v-6.59q0-3.28-.12-6.83t-.25-6.77a6.66,6.66,0,0,0-.62-2.46,4.78,4.78,0,0,0-2.55-2.08v-.43c.83.08,1.74.16,2.73.22S394.55,113.88,395.46,113.88Zm2.61,4.84c-.13,1.12-.2,2.26-.22,3.42s0,2.34,0,3.54v5.59l2.49,0,2.17,0q5.72,0,7.79-2.11t2-6.21a6.39,6.39,0,0,0-.87-3.51,7,7,0,0,0-2.92-2.89,7.63,7.63,0,0,0-3.07-.93,30.39,30.39,0,0,0-3.32-.19,17.55,17.55,0,0,0-1.81.09c-.58.07-1.18.12-1.8.16a2.8,2.8,0,0,0-.34,1.49A14.37,14.37,0,0,1,398.07,118.72Z"/>
    <path class="cls-1" d="M456,118.54l12.05,26.27a7.7,7.7,0,0,0,4.53,4.35v.31a41.43,41.43,0,0,0-5.53-.37,44.73,44.73,0,0,0-5.83.37v-.25a1.86,1.86,0,0,1,.77-1.3,2,2,0,0,0,.78-1.56,3.14,3.14,0,0,0-.44-1.67l-3.85-9.32c-1.07-.08-2.17-.16-3.29-.22s-2.23-.09-3.35-.09-2.32,0-3.48.09-2.3.14-3.42.22l-4.47,10.12c-.16.38-.31.72-.43,1a2.45,2.45,0,0,0-.19,1,2.6,2.6,0,0,0,.93,1.74v.25c-.7-.08-1.38-.14-2.05-.19s-1.34-.06-2.05-.06-1.49,0-2.23.06-1.47.11-2.18.19l.31-.25a8.32,8.32,0,0,0,3.14-1.68,8.94,8.94,0,0,0,2.27-2.92l12.17-25.46a3.65,3.65,0,0,0,.13-.75,3.76,3.76,0,0,0-1.09-2.57,11.16,11.16,0,0,0-2.7-2.27l-.13-.31,2.92.12c1.16,0,2.18.07,3.05.07h1.36Zm1.43,14.78v-.25l-5.28-12.23h-.12l-5.84,12.23v.25q1.37.06,2.76.09c.93,0,1.87,0,2.83,0l2.79,0C455.54,133.39,456.5,133.36,457.45,133.32Z"/>
  </g>
  <path class="cls-1" d="M84.42,102.29a6.35,6.35,0,0,1-.34,2L55.74,172.77a22.39,22.39,0,0,1-5.38,7.95c-.25.24-.51.47-.77.69A13.53,13.53,0,0,1,45,171.21V103.62A13.56,13.56,0,0,1,58.54,90.05H76.72a26.23,26.23,0,0,1,5.19,5.28A11.11,11.11,0,0,1,84.42,102.29Z"/>
  <path class="cls-1" d="M101.52,142.8a82.1,82.1,0,0,0-18.27,6,54.55,54.55,0,0,0-15.57,10.94l20.73-51h.35Z"/>
  <path class="cls-1" d="M139.7,103.62V141.7q-5.35-.64-10.84-.89a131.29,131.29,0,0,0-15.64.23l-15.33-38.4-5-12.59h33.18A13.57,13.57,0,0,1,139.7,103.62Z"/>
  <path class="cls-1" d="M113.69,177.57a4.37,4.37,0,0,1-.58,2.11,19.38,19.38,0,0,1-1.29,2c-.47.62-.9,1.22-1.28,1.81a3.09,3.09,0,0,0-.55,1.3H61.81a4.57,4.57,0,0,1-1.38-3,4.37,4.37,0,0,1,.87-1.58c.59-.81,1.29-1.76,2.12-2.81s1.71-2.14,2.68-3.27S68,172,68.74,171.25a90.47,90.47,0,0,1,35.35-21.43l3.84,10.28c-26.86,9-39.84,19.46-40.24,19.79a190.41,190.41,0,0,1,42-15l3,8.14a16.2,16.2,0,0,1,.65,2.22A11.13,11.13,0,0,1,113.69,177.57Z"/>
  <path class="cls-1" d="M139.7,160.8v10.41A13.55,13.55,0,0,1,132.91,183a15.53,15.53,0,0,1-2.59-2.41,24.15,24.15,0,0,1-4.21-7.2l-4.31-10.8A163.39,163.39,0,0,1,139.7,160.8Z"/>
  <path class="cls-1" d="M139.7,144.55V152c-7.33,1.35-14.09,2.92-20.27,4.61l-3.87-9.7a112.35,112.35,0,0,1,14.05-2Q134.5,144.51,139.7,144.55Z"/>
  <path class="cls-2" d="M83.62,101.48a6.38,6.38,0,0,1-.35,2L54.94,172a22.32,22.32,0,0,1-5.39,8c-.25.23-.51.47-.77.68a13.53,13.53,0,0,1-4.62-10.2V102.81A13.57,13.57,0,0,1,57.73,89.24H75.91a26.81,26.81,0,0,1,5.2,5.28A11.11,11.11,0,0,1,83.62,101.48Z"/>
  <path class="cls-2" d="M100.71,142a83.06,83.06,0,0,0-18.26,6A54.28,54.28,0,0,0,66.88,159l20.72-51H88Z"/>
  <path class="cls-2" d="M138.89,102.81v38.08c-3.56-.43-7.18-.73-10.84-.89a131.08,131.08,0,0,0-15.63.24l-15.34-38.4-4.94-12.6h33.17A13.57,13.57,0,0,1,138.89,102.81Z"/>
  <path class="cls-2" d="M112.88,176.76a4.31,4.31,0,0,1-.58,2.11,17.84,17.84,0,0,1-1.29,2c-.47.62-.89,1.23-1.28,1.81a3.26,3.26,0,0,0-.55,1.31H61a4.62,4.62,0,0,1-1.38-3,4.38,4.38,0,0,1,.88-1.58c.58-.81,1.29-1.76,2.11-2.8s1.71-2.15,2.69-3.28,1.85-2.09,2.63-2.87A90.47,90.47,0,0,1,103.28,149l3.84,10.28c-26.85,9-39.83,19.47-40.24,19.79a190.59,190.59,0,0,1,42-15l3,8.15a16.89,16.89,0,0,1,.64,2.22A10.36,10.36,0,0,1,112.88,176.76Z"/>
  <path class="cls-2" d="M138.89,160V170.4a13.53,13.53,0,0,1-6.79,11.75,15.93,15.93,0,0,1-2.59-2.41,24.23,24.23,0,0,1-4.21-7.2L121,161.74A165.9,165.9,0,0,1,138.89,160Z"/>
  <path class="cls-2" d="M138.89,143.74v7.44c-7.33,1.35-14.08,2.92-20.26,4.62l-3.87-9.71a115.91,115.91,0,0,1,14-2C132.07,143.83,135.42,143.71,138.89,143.74Z"/>
  <g>
    <path class="cls-2" d="M182.63,141.91l-4.6-12.3A47.76,47.76,0,0,0,159.28,141c-.42.41-.88.92-1.4,1.52s-1,1.18-1.43,1.74-.81,1-1.12,1.49a2.24,2.24,0,0,0-.46.83,2.62,2.62,0,0,0,.93,1.8v.38a33.66,33.66,0,0,0-5-.38,40.55,40.55,0,0,0-5.53.38l.31-.38a10.33,10.33,0,0,0,4-2.35,11.76,11.76,0,0,0,2.86-4.23l15-36.33a3.26,3.26,0,0,0,.19-1.06,5.84,5.84,0,0,0-1.34-3.69,14.2,14.2,0,0,0-3.38-3.27l-.12-.43c1,.08,2.25.16,3.66.22s2.67.09,3.79.09h1.68l2.85,7.27L182.88,125a69.31,69.31,0,0,1,8.29-.13,78.81,78.81,0,0,1,8.23.81l.25,1.25a62.38,62.38,0,0,0-15.53,1.17l5.59,14a13,13,0,0,0,2.24,3.82,8.56,8.56,0,0,0,3.35,2.39v.44a42.12,42.12,0,0,0-6.83-.56,47.61,47.61,0,0,0-7.33.56v-.38a1.6,1.6,0,0,1,.31-.89c.21-.31.44-.64.68-1a9.51,9.51,0,0,0,.69-1.05,2.4,2.4,0,0,0,.31-1.12,5.27,5.27,0,0,0-.16-1.24A7.73,7.73,0,0,0,182.63,141.91Zm-12.92-34.1-11,27.08a28.82,28.82,0,0,1,8.26-5.81,44.07,44.07,0,0,1,9.69-3.2l-6.77-18.07Z"/>
    <path class="cls-2" d="M207.66,148.43c-.83,0-1.78,0-2.86.12s-2,.15-2.85.19l-.07-.5a5.65,5.65,0,0,0,2.33-2.2,6.9,6.9,0,0,0,1.28-3.08c0-2.19.06-4.15.06-5.87v-5.87q0-3.28-.13-6.77c-.08-2.32-.16-4.57-.25-6.77a7.82,7.82,0,0,0-.58-2.54,5.19,5.19,0,0,0-2.33-2.36v-.31l2.6.15c.92.06,1.83.1,2.74.1s1.74,0,2.61-.1,1.76-.11,2.67-.15v.31a3.31,3.31,0,0,0-2,2.17,13.54,13.54,0,0,0-.62,2.92c-.13,1.16-.2,2.36-.22,3.6s0,2.51,0,3.79v5.84c0,2.2,0,4.16.09,5.9s.16,3.71.28,5.9a3.32,3.32,0,0,0,.72,2,4.23,4.23,0,0,0,1.64,1.24,8.63,8.63,0,0,0,2.24.62,17.65,17.65,0,0,0,2.54.19,20.07,20.07,0,0,0,4-.47A10.57,10.57,0,0,0,225.3,145a7.85,7.85,0,0,0,1.49-1.37,17.22,17.22,0,0,0,1.06-1.39c.29-.44.55-.8.77-1.09a.93.93,0,0,1,.66-.44c.12,0,.2.08.24.22a1.56,1.56,0,0,1,.07.34,3.06,3.06,0,0,1-.28,1.09c-.19.44-.41.9-.66,1.4l-.74,1.52a8.16,8.16,0,0,0-.56,1.46,4.52,4.52,0,0,1-.71,1.18,1.66,1.66,0,0,1-1.34.56l-3.23.22c-1.12.06-2.19.09-3.23.09-1.24,0-2.33,0-3.26-.06s-1.81-.08-2.64-.1-1.66-.05-2.48-.09S208.7,148.43,207.66,148.43Z"/>
    <path class="cls-2" d="M253.13,112.59a25.58,25.58,0,0,1,9,1.49,19.83,19.83,0,0,1,6.68,4,17,17,0,0,1,4.13,5.84,17.36,17.36,0,0,1,1.43,6.92,16.76,16.76,0,0,1-1,5.93,16,16,0,0,1-2.88,4.94,18.93,18.93,0,0,1-4.45,3.76,22.53,22.53,0,0,1-5.62,2.45c2.82.75,5.59,1.61,8.33,2.58s5.48,1.88,8.26,2.73,5.6,1.57,8.48,2.15a45.64,45.64,0,0,0,8.91.86,18,18,0,0,0,4.35-.52,12.83,12.83,0,0,0,4-1.84,1.41,1.41,0,0,1,.69-.31c.08,0,.12,0,.12.07a.52.52,0,0,1-.09.21,1.57,1.57,0,0,1-.47.41,24,24,0,0,1-6.83,3.63,23.24,23.24,0,0,1-7.64,1.33,36.13,36.13,0,0,1-11.93-1.92A114.23,114.23,0,0,1,266,153q-3.11-1.49-6.3-2.73a22.78,22.78,0,0,0-7.17-1.43,29.4,29.4,0,0,1-8.11-1.46,21.73,21.73,0,0,1-6.68-3.54,16.78,16.78,0,0,1-4.5-5.43,15.21,15.21,0,0,1-1.65-7.14,15.5,15.5,0,0,1,1.74-7.18,20.22,20.22,0,0,1,4.69-6,22.45,22.45,0,0,1,6.87-4.07A23,23,0,0,1,253.13,112.59Zm-16.34,17.52a17.06,17.06,0,0,0,1.25,6.58,16.11,16.11,0,0,0,3.45,5.28,15.89,15.89,0,0,0,5.29,3.51,17.45,17.45,0,0,0,6.75,1.27q7.16,0,11.45-4.13t4.29-11.21a18.68,18.68,0,0,0-1.27-7.14,14.92,14.92,0,0,0-3.49-5.22,14.76,14.76,0,0,0-5.16-3.2,18.29,18.29,0,0,0-6.32-1.09,19,19,0,0,0-6.75,1.15,15,15,0,0,0-5.1,3.17,14.06,14.06,0,0,0-3.24,4.85A16.15,16.15,0,0,0,236.79,130.11Z"/>
    <path class="cls-2" d="M294.25,149.24a45.29,45.29,0,0,1-4.82-.28,13,13,0,0,1-4.63-1.4,9.5,9.5,0,0,1-3.51-3.29,11.66,11.66,0,0,1-1.52-5.9q-.06-3-.09-4.41c0-.91,0-1.7,0-2.36,0-1.58,0-3.23.06-5s.06-3.44.06-5.1v-1.86q0-.93-.06-1.8a7.84,7.84,0,0,0-.59-2.55,5.19,5.19,0,0,0-2.33-2.36v-.31c.83,0,1.71.1,2.64.16s1.83.09,2.7.09,1.75,0,2.64-.09,1.77-.12,2.64-.16V113a3.55,3.55,0,0,0-2.05,2.21,12.94,12.94,0,0,0-.62,2.89c-.12,1.15-.19,2.36-.22,3.6s0,2.5,0,3.79v5.84c0,.7,0,1.48,0,2.32s.08,2.19.16,4a11.89,11.89,0,0,0,1,5,7.57,7.57,0,0,0,2.33,2.86,7.32,7.32,0,0,0,3.17,1.27,22.42,22.42,0,0,0,3.57.28,29.25,29.25,0,0,0,4.75-.34,7.53,7.53,0,0,0,3.51-1.46,7.3,7.3,0,0,0,2.24-3.17,17,17,0,0,0,.93-5.52c0-1.29.06-2.3.06-3v-2.11c0-1.24,0-2.52,0-3.82s0-2.6,0-3.88c0-1,0-2,0-2.95s-.05-1.94-.09-2.89a6.7,6.7,0,0,0-.62-2.86,5.69,5.69,0,0,0-2.67-2.05v-.31l1.92.13c.63,0,1.27.06,1.93.06q1.25,0,2.58-.06c.89,0,1.79-.11,2.7-.19v.31a4.15,4.15,0,0,0-2.11,1.74,8.49,8.49,0,0,0-.69,3.35q-.12,3.11-.12,6.68v6.62q0,1,0,1.89t0,1.89a22,22,0,0,1-1.12,7.83,9.1,9.1,0,0,1-3.08,4.26,10,10,0,0,1-4.69,1.73A47,47,0,0,1,294.25,149.24Z"/>
    <path class="cls-2" d="M320.52,148.36c-.91,0-1.93,0-3,.13s-2.09.17-2.92.25v-.69a4.27,4.27,0,0,0,1.28-.83,9.19,9.19,0,0,0,1.18-1.31,8.57,8.57,0,0,0,.9-1.52,3.54,3.54,0,0,0,.37-1.49c0-2.15.06-4.09.06-5.81v-5.87q0-3.23-.09-6.77c-.06-2.36-.17-4.61-.34-6.77a4.77,4.77,0,0,0-.93-2.54,6.57,6.57,0,0,0-2.92-2.12l-.06-.49c.41,0,1,.07,1.67.1l2.18.13,2.17.14c.71,0,1.26.06,1.68.06s1.22,0,2.3-.06l3.35-.11q1.74-.11,3.48-.18c1.16-.06,2.23-.08,3.23-.08l1.58,0q.84,0,1.56.12a6.57,6.57,0,0,1,1.21.28c.33.13.49.29.49.5a8.36,8.36,0,0,0,.22,2.17,7,7,0,0,1,.22,1.87c0,.25-.09.37-.25.37a.54.54,0,0,1-.53-.4,3.59,3.59,0,0,0-.47-.84,6.27,6.27,0,0,0-2.48-1.49,17.73,17.73,0,0,0-6.09-.75,24.56,24.56,0,0,0-2.54.13q-1.31.12-3.6.24a4.45,4.45,0,0,0-.28,1.46c0,.52-.08,1-.16,1.59-.12,1.78-.2,3.63-.22,5.56s0,3.79,0,5.62q1.74,0,3.36.06c1.07,0,2.15.06,3.23.06a9.51,9.51,0,0,0,1.08-.06,9.69,9.69,0,0,1,1.09-.06,12.3,12.3,0,0,0,2.92-.49,5.44,5.44,0,0,0,2.73-2h.31a16.94,16.94,0,0,1-.18,1.76,11.09,11.09,0,0,0-.13,1.92v1.64c0,.34,0,.9.06,1.7h-.37a4,4,0,0,0-2.55-1.83,18,18,0,0,0-3.29-.59c-1.28-.08-2.63-.13-4-.13h-4.22v.13q0,3.22.16,5.9t.28,5.9a2.51,2.51,0,0,0,1,2,7.74,7.74,0,0,0,2.24,1.15,11.75,11.75,0,0,0,2.82.55c1,.09,1.94.13,2.77.13a29.71,29.71,0,0,0,3.63-.22,7.07,7.07,0,0,0,3.32-1.27,13.28,13.28,0,0,0,2.86-2.58c.7-.89,1.22-1.33,1.55-1.33a.38.38,0,0,1,.44.43,2,2,0,0,1-.34,1c-.23.38-.49.78-.78,1.22l-.9,1.36a4.87,4.87,0,0,0-.65,1.4,2.74,2.74,0,0,1-.59,1.18c-.31.37-1.11.56-2.4.56H327.47c-.82,0-1.59,0-2.29,0s-1.41,0-2.11,0Z"/>
    <path class="cls-2" d="M351.51,148.43c-.83,0-1.78,0-2.86.12s-2,.15-2.85.19l-.07-.5a5.65,5.65,0,0,0,2.33-2.2,6.9,6.9,0,0,0,1.28-3.08c0-2.19.06-4.15.06-5.87v-5.87q0-3.28-.13-6.77c-.08-2.32-.16-4.57-.24-6.77a7.84,7.84,0,0,0-.59-2.54,5.19,5.19,0,0,0-2.33-2.36v-.31l2.61.15c.91.06,1.82.1,2.73.1s1.74,0,2.61-.1,1.76-.11,2.67-.15v.31a3.31,3.31,0,0,0-2.05,2.17,13.54,13.54,0,0,0-.62,2.92c-.13,1.16-.2,2.36-.22,3.6s0,2.51,0,3.79v5.84c0,2.2,0,4.16.09,5.9s.16,3.71.28,5.9a3.32,3.32,0,0,0,.72,2,4.23,4.23,0,0,0,1.64,1.24,8.63,8.63,0,0,0,2.24.62,17.65,17.65,0,0,0,2.54.19,20.07,20.07,0,0,0,4-.47,10.5,10.5,0,0,0,3.79-1.52,7.56,7.56,0,0,0,1.49-1.37,17.22,17.22,0,0,0,1.06-1.39c.29-.44.55-.8.77-1.09a.93.93,0,0,1,.66-.44c.12,0,.2.08.25.22a1.43,1.43,0,0,1,.06.34,3.06,3.06,0,0,1-.28,1.09c-.19.44-.41.9-.66,1.4l-.74,1.52a8.16,8.16,0,0,0-.56,1.46,4.26,4.26,0,0,1-.71,1.18,1.66,1.66,0,0,1-1.34.56l-3.23.22c-1.12.06-2.19.09-3.23.09-1.24,0-2.33,0-3.26-.06s-1.81-.08-2.64-.1-1.65-.05-2.48-.09S352.55,148.43,351.51,148.43Z"/>
    <path class="cls-2" d="M380.89,148.49q-1.31,0-2.64.06c-.89,0-1.73.11-2.52.19v-.38a5.1,5.1,0,0,0,2-1.49,3.78,3.78,0,0,0,.9-2.35c0-2.2.07-4.39.07-6.59v-6.58c0-2.16,0-4.41-.1-6.77s-.15-4.62-.28-6.77a7.44,7.44,0,0,0-.59-2.58,5.48,5.48,0,0,0-2.33-2.39v-.25c.83.08,1.71.15,2.64.19s1.84.06,2.71.06,1.75,0,2.64-.09,1.76-.12,2.64-.16v.25A3.51,3.51,0,0,0,384,115a13.23,13.23,0,0,0-.63,2.89q-.18,1.74-.21,3.63c0,1.27,0,2.54,0,3.83v5.83c0,2.16,0,4.33.12,6.53s.16,4.36.25,6.52a5.36,5.36,0,0,0,.81,2.45,4.18,4.18,0,0,0,2.17,1.64v.38c-1-.08-1.89-.15-2.83-.19S381.8,148.49,380.89,148.49Z"/>
    <path class="cls-2" d="M394.18,113.15c1.66,0,3.25-.07,4.78-.22s3.05-.21,4.54-.21a20.38,20.38,0,0,1,3.79.43,15,15,0,0,1,3.85,1.24,8.52,8.52,0,0,1,3.69,3.63,9.79,9.79,0,0,1,1.15,4.45,9.18,9.18,0,0,1-1.33,4.78,10.7,10.7,0,0,1-3.51,3.6c-.38.17-.75.34-1.12.53a4.4,4.4,0,0,1-1.24.4q1.68,2.29,3.69,5.19a59.58,59.58,0,0,0,4.29,5.43,27.45,27.45,0,0,0,4.69,4.26,8.44,8.44,0,0,0,6.09,1.64,11,11,0,0,1,1.18-.06c.2,0,.31.08.31.25s-.18.41-.53.62a5.78,5.78,0,0,1-1.27.53,13,13,0,0,1-1.53.34,8.91,8.91,0,0,1-1.27.13,12.82,12.82,0,0,1-7-1.84,24.75,24.75,0,0,1-5.28-4.53,66.69,66.69,0,0,1-4.53-5.75,37.88,37.88,0,0,0-4.75-5.53h-2.61a9.33,9.33,0,0,0-1.71,0l-2,.15c0,1.95,0,3.89.06,5.84s.15,3.89.31,5.84a4.79,4.79,0,0,0,.81,2.64,5.55,5.55,0,0,0,2.17,1.46v.37q-1.42-.06-2.82-.15c-.93-.07-1.87-.1-2.83-.1s-1.79,0-2.88.1l-2.89.15v-.44a8.89,8.89,0,0,0,2.32-1.45,3.4,3.4,0,0,0,1.28-2.33c0-2.2.06-4.39.06-6.59v-6.58q0-3.28-.12-6.83t-.25-6.77a6.66,6.66,0,0,0-.62-2.46,4.78,4.78,0,0,0-2.55-2.08v-.43c.83.08,1.74.15,2.73.22S393.27,113.15,394.18,113.15Zm2.61,4.84c-.13,1.12-.2,2.26-.22,3.42s0,2.34,0,3.54v5.59l2.49,0,2.17,0c3.81,0,6.41-.71,7.79-2.11s2-3.48,2-6.21a6.44,6.44,0,0,0-.87-3.52,7.05,7.05,0,0,0-2.92-2.88,7.63,7.63,0,0,0-3.07-.93,30.39,30.39,0,0,0-3.32-.19,17.55,17.55,0,0,0-1.81.09c-.58.06-1.18.12-1.8.16a2.8,2.8,0,0,0-.34,1.49A14.37,14.37,0,0,1,396.79,118Z"/>
    <path class="cls-2" d="M454.74,117.81l12.05,26.27a7.7,7.7,0,0,0,4.53,4.35v.31a41.45,41.45,0,0,0-5.53-.38,44.72,44.72,0,0,0-5.83.38v-.25a1.86,1.86,0,0,1,.77-1.3,2,2,0,0,0,.78-1.56,3.14,3.14,0,0,0-.44-1.67l-3.85-9.32c-1.07-.08-2.17-.16-3.29-.22s-2.23-.09-3.35-.09-2.32,0-3.48.09-2.3.14-3.42.22l-4.47,10.12c-.16.38-.31.72-.43,1a2.45,2.45,0,0,0-.19,1,2.6,2.6,0,0,0,.93,1.74v.25c-.7-.08-1.38-.15-2-.19s-1.34-.06-2.05-.06-1.49,0-2.23.06-1.47.11-2.18.19l.31-.25a8.32,8.32,0,0,0,3.14-1.68,9,9,0,0,0,2.27-2.92l12.17-25.46a3.65,3.65,0,0,0,.13-.75,3.8,3.8,0,0,0-1.09-2.58,11.35,11.35,0,0,0-2.7-2.26l-.13-.31,2.92.12c1.16,0,2.18.07,3.05.07h1.36Zm1.43,14.78v-.25l-5.28-12.24h-.12l-5.84,12.24v.25q1.36.06,2.76.09c.93,0,1.87,0,2.83,0l2.79,0C454.26,132.66,455.22,132.63,456.17,132.59Z"/>
  </g>
  <path class="cls-3" d="M82.81,100.67a6.16,6.16,0,0,1-.35,2L54.13,171.16a22.28,22.28,0,0,1-5.39,8c-.25.24-.51.47-.76.69a13.52,13.52,0,0,1-4.63-10.21V102A13.57,13.57,0,0,1,56.92,88.44H75.11a26.71,26.71,0,0,1,5.19,5.27A11.13,11.13,0,0,1,82.81,100.67Z"/>
  <path class="cls-3" d="M99.9,141.19a82.69,82.69,0,0,0-18.26,6,54.61,54.61,0,0,0-15.57,10.94l20.72-51h.36Z"/>
  <path class="cls-3" d="M138.09,102v38.07c-3.57-.43-7.18-.72-10.85-.88a129.05,129.05,0,0,0-15.63.23L96.27,101,91.33,88.44h33.18A13.57,13.57,0,0,1,138.09,102Z"/>
  <path class="cls-3" d="M112.08,176a4.41,4.41,0,0,1-.58,2.1,20,20,0,0,1-1.29,2c-.47.63-.9,1.23-1.29,1.81a3.32,3.32,0,0,0-.55,1.31H60.2a4.59,4.59,0,0,1-1.38-3,4.29,4.29,0,0,1,.87-1.58c.59-.82,1.29-1.76,2.11-2.81s1.71-2.15,2.69-3.28,1.85-2.09,2.64-2.87A91.67,91.67,0,0,1,83,157.23a89.45,89.45,0,0,1,19.49-9l3.84,10.27c-26.86,9-39.84,19.47-40.24,19.79a191.56,191.56,0,0,1,42-15l3,8.15a18.46,18.46,0,0,1,.65,2.22A11.06,11.06,0,0,1,112.08,176Z"/>
  <path class="cls-3" d="M138.09,159.19v10.4a13.54,13.54,0,0,1-6.8,11.76,16.42,16.42,0,0,1-2.59-2.42,24.18,24.18,0,0,1-4.21-7.19l-4.31-10.8A161.13,161.13,0,0,1,138.09,159.19Z"/>
  <path class="cls-3" d="M138.09,142.94v7.44c-7.34,1.34-14.09,2.92-20.27,4.61l-3.87-9.7a114,114,0,0,1,14-2Q132.89,142.9,138.09,142.94Z"/>
  <g>
    <path class="cls-1" d="M156,166.34h-4.16v10.83h-2.14V166.34h-4.15v-2H156Z"/>
    <path class="cls-1" d="M173.82,164.36v12.81h-2.14v-5.5H165v5.5h-2.14V164.36H165v5.31h6.68v-5.31Z"/>
    <path class="cls-1" d="M191.45,175.22v1.95h-9.54V164.36h9.43v1.94H184v3.43h7v1.9h-7v3.59Z"/>
    <path class="cls-1" d="M220,178.27l-1.93-1.86a6.89,6.89,0,0,1-3.78,1,6.68,6.68,0,1,1,6.58-6.68,7,7,0,0,1-1.22,4.12l1.86,1.84Zm-1.29-7.5c0-2.8-1.79-4.7-4.42-4.7a4.71,4.71,0,0,0,0,9.4C216.9,175.47,218.69,173.57,218.69,170.77Z"/>
    <path class="cls-1" d="M228,171.87v-7.51h2.12v7.47c0,2.21,1.32,3.62,3.37,3.62s3.37-1.41,3.37-3.62v-7.47H239v7.51c0,3.42-2.12,5.56-5.49,5.56S228,175.29,228,171.87Z"/>
    <path class="cls-1" d="M255.35,174.52h-6.88l-1.17,2.65H245l5.75-12.81h2.38l5.73,12.81h-2.33Zm-6-1.94h5.23l-2.62-6.06Z"/>
    <path class="cls-1" d="M265.49,164.36h2.14v10.82h6.75v2h-8.89Z"/>
    <path class="cls-1" d="M281.23,164.36h2.14v12.81h-2.14Z"/>
    <path class="cls-1" d="M300.64,166.34h-4.15v10.83h-2.14V166.34h-4.16v-2h10.45Z"/>
    <path class="cls-1" d="M313.2,172v5.17h-2.13V172l-5-7.64h2.54l3.55,5.6,3.66-5.6h2.59Z"/>
    <path class="cls-1" d="M333.25,170.77a6.6,6.6,0,1,1,6.61,6.68A6.3,6.3,0,0,1,333.25,170.77Zm11,0c0-2.8-1.8-4.7-4.43-4.7a4.71,4.71,0,0,0,0,9.4C342.49,175.47,344.29,173.57,344.29,170.77Z"/>
    <path class="cls-1" d="M355.91,166.34v3.95h6.58v1.94h-6.58v4.94h-2.14V164.36h9.07v2Z"/>
    <path class="cls-1" d="M378.49,170.77a6.39,6.39,0,0,1,6.7-6.66,6.54,6.54,0,0,1,4.77,2l-1.43,1.32a4.67,4.67,0,1,0-3.27,8.07,4.9,4.9,0,0,0,3.42-1.37l1.37,1.43a6.64,6.64,0,0,1-4.84,1.9A6.39,6.39,0,0,1,378.49,170.77Z"/>
    <path class="cls-1" d="M406,174.52h-6.89l-1.17,2.65h-2.3l5.74-12.81h2.38l5.73,12.81h-2.32Zm-6.06-1.94h5.23l-2.62-6.06Z"/>
    <path class="cls-1" d="M420.85,172.8h-2.6v4.37h-2.14V164.36h6c2.75,0,4.54,1.69,4.54,4.23a4,4,0,0,1-3.31,4.08l3.9,4.5h-2.67Zm1.25-6.46h-3.87v4.5h3.87a2.26,2.26,0,1,0,0-4.5Z"/>
    <path class="cls-1" d="M434.25,164.36h2.14v12.81h-2.14Z"/>
    <path class="cls-1" d="M455.46,164.36v12.81h-1.94L446.6,168l0,4.09v5.06h-2.14V164.36h1.94l6.91,9.15v-9.15Z"/>
    <path class="cls-1" d="M474.62,169.89v5.44a7,7,0,0,1-5.22,2.1,6.25,6.25,0,0,1-6.62-6.66,6.41,6.41,0,0,1,6.77-6.66,6.55,6.55,0,0,1,4.76,2l-1.38,1.38a5,5,0,0,0-3.4-1.38,4.42,4.42,0,0,0-4.61,4.69c0,2.86,1.75,4.68,4.48,4.68a5,5,0,0,0,3.24-1v-2.64h-3.59v-1.88Z"/>
  </g>
</svg>